<?xml version="1.0" encoding="utf-8"?>
<!-- Generator: Adobe Illustrator 26.5.0, SVG Export Plug-In . SVG Version: 6.00 Build 0)  -->
<svg version="1.1" id="icon-0" xmlns:svgjs="http://svgjs.dev/svgjs"
	 xmlns="http://www.w3.org/2000/svg" xmlns:xlink="http://www.w3.org/1999/xlink" x="0px" y="0px" viewBox="0 0 698.1 165.7"
	 style="enable-background:new 0 0 698.1 165.7;" xml:space="preserve">
<style type="text/css">
	.st0{fill:#FFFFFF;}
	.st1{fill:#FFA458;}
	.st2{fill:#BA3B0A;}
	.st3{display:none;fill:none;}
</style>
<rect y="0" class="st0" width="698.1" height="164.9"/>
<g transform="matrix(0.7,0,0,0.7,149.5757575757575,416.9317145971363)">
	<g id="tight-bounds" transform="matrix(1,0,0,1,0.24000000000003752,0.06702126503427053)">
		<g>
			<g>
				<path id="o-0" class="st1" d="M-203.9-474.2h977.3c5.5,0,10,1.5,10,3.4l0,0c0,1.9-4.5,3.4-10,3.4h-977.3c-5.5,0-10-1.5-10-3.4
					l0,0C-213.9-472.7-209.5-474.2-203.9-474.2z"/>
			</g>
			<g>
				<path id="o-1" class="st1" d="M-203.9-458.6h977.3c5.5,0,10,1.5,10,3.4l0,0c0,1.9-4.5,3.4-10,3.4h-977.3c-5.5,0-10-1.5-10-3.4
					l0,0C-213.9-457.1-209.5-458.6-203.9-458.6z"/>
			</g>
			<g transform="matrix(1,0,0,1,0.9887999999999693,64.41182038276827)">
				<g id="textblocktransform">
					<g>
						<g transform="matrix(1,0,0,1,0,0)">
							<path id="text-0" class="st1" d="M-164.4-466.1v-31.6h8.8v73.3h-8.8v-33.9h-39.2v33.9h-8.8v-73.3h8.8v31.6H-164.4z
								 M-138.1-424.5l26-73.3h9.9l26,73.3H-85l-7.4-21.3h-30.2l-7.4,21.3H-138.1z M-95.1-453.4l-12.4-35.7l-12.5,35.7H-95.1z
								 M-10.2-477.6L-10.2-477.6c0,2.4-0.3,4.8-0.9,6.9c-0.6,2.2-1.5,4.3-2.7,6.3s-2.9,3.7-5.1,5.2s-4.7,2.5-7.6,3.2l0,0l20.7,31.5
								h-9.8l-20-30.5h-14.2v30.5h-8.8v-73.3h26.9c1.2,0,2.4,0,3.3,0.1c1,0.1,2.3,0.2,3.8,0.5c1.6,0.3,2.9,0.7,4.2,1.2
								c1.2,0.5,2.5,1.3,3.8,2.3s2.4,2.2,3.3,3.6c0.9,1.4,1.6,3.1,2.2,5.3C-10.5-482.7-10.2-480.3-10.2-477.6z M-49.8-490v27.3h12.6
								c1.7,0,3.3-0.1,4.6-0.2s2.9-0.5,4.7-1c1.8-0.5,3.3-1.3,4.5-2.2c1.2-1,2.2-2.3,3-4.1c0.8-1.8,1.3-3.9,1.3-6.4l0,0
								c0-1.7-0.2-3.3-0.7-4.7c-0.4-1.4-1-2.6-1.7-3.5s-1.5-1.7-2.5-2.4c-1-0.7-2-1.2-2.9-1.5c-0.9-0.4-2-0.6-3.1-0.8
								c-1.1-0.2-2.1-0.3-2.8-0.4c-0.7,0-1.5-0.1-2.3-0.1l0,0L-49.8-490L-49.8-490z M15.6-424.5v-73.3H28l23.5,44.4l23.9-44.4H87
								v73.3h-8.8v-60.7l-22.5,39.7h-8.8l-22.5-39.7v60.7H15.6z M143.3-498.5L143.3-498.5c4.9,0,9.4,0.9,13.6,2.6
								c4.2,1.7,7.8,4.1,10.9,7.2c3.1,3.1,5.5,6.9,7.2,11.6c1.8,4.6,2.6,9.7,2.6,15.2l0,0c0,7.5-1.5,14.1-4.5,20
								c-3,5.8-7.1,10.3-12.4,13.5c-5.3,3.2-11.3,4.8-17.9,4.8l0,0c-4.4,0-8.6-0.8-12.6-2.3c-4-1.6-7.7-3.9-10.9-6.8
								c-3.2-3-5.8-6.9-7.7-11.7c-1.9-4.8-2.9-10.3-2.9-16.3l0,0c0-5.7,0.9-10.9,2.6-15.6c1.8-4.7,4.2-8.7,7.2-11.9
								c3.1-3.2,6.7-5.7,10.9-7.5C133.8-497.6,138.4-498.5,143.3-498.5z M142.8-490.8L142.8-490.8c-3.1,0-6.1,0.6-9,1.8
								s-5.5,2.9-8,5.1c-2.4,2.3-4.4,5.3-5.8,9.1c-1.5,3.8-2.2,8.1-2.2,12.9l0,0c0,4.6,0.7,8.8,2,12.6c1.4,3.9,3.2,7.1,5.5,9.7
								s5,4.6,8.2,6.1s6.5,2.2,10.1,2.2l0,0c2.4,0,4.8-0.4,7.2-1.1s4.6-1.9,6.8-3.4c2.2-1.6,4-3.5,5.7-5.7c1.6-2.3,2.9-5.1,3.9-8.4
								s1.5-7,1.5-11l0,0c0-4.1-0.5-7.8-1.5-11.1c-1-3.4-2.4-6.2-4.1-8.5c-1.7-2.3-3.7-4.2-5.9-5.7c-2.3-1.6-4.6-2.7-6.9-3.4
								C147.7-490.5,145.3-490.8,142.8-490.8z M199.6-424.5v-73.3h11.1l39.9,61.3v-61.3h8.8v73.3h-11.1l-39.9-61.4v61.4H199.6z
								 M286.7-424.5v-73.3h8.8v73.3H286.7z M355.2-498.3L355.2-498.3c8.2,0,16.1,2.1,23.5,6.2l0,0l-3.4,6.5
								c-2.6-1.4-5.7-2.5-9.1-3.5c-3.5-1-7-1.5-10.5-1.5l0,0c-3.6,0-7.1,0.7-10.5,2c-3.4,1.4-6.3,3.2-8.9,5.7
								c-2.6,2.4-4.7,5.5-6.3,9.2c-1.6,3.7-2.3,7.7-2.3,12.1l0,0c0,5.8,1.3,11,3.9,15.7c2.6,4.6,6.1,8.3,10.7,10.8
								c4.5,2.6,9.6,3.9,15.2,3.9l0,0c6.6,0,12-2,16.2-6l0,0v-18.7h-20.8v-7.2h29.3v28.8c-0.9,1.1-2,2.1-3.2,3.1s-2.9,2.1-5.1,3.4
								s-4.9,2.4-8.1,3.2c-3.2,0.8-6.7,1.2-10.4,1.2l0,0c-4.9,0-9.4-0.7-13.5-2.2s-7.6-3.4-10.3-5.8c-2.8-2.4-5.1-5.3-7.1-8.5
								c-1.9-3.3-3.3-6.6-4.2-10.2c-0.9-3.5-1.3-7.2-1.3-10.8l0,0c0-3.8,0.5-7.6,1.5-11.2s2.5-7,4.5-10.2s4.5-5.9,7.3-8.3
								s6.2-4.2,10.2-5.6C346.3-497.6,350.6-498.3,355.2-498.3z M404.8-449.6v-48.1h8.8v47.5c0,2.9,0.3,5.4,0.8,7.5s1.5,4.1,3.2,5.9
								l0,0c3.4,3.9,8.5,5.8,15.2,5.8l0,0c4.8,0,8.9-1.1,12.1-3.2c3.3-2.1,5.4-5.1,6.3-9l0,0c0.5-1.8,0.7-4.2,0.7-7.1l0,0v-47.5h8.7
								c0,11,0,20,0,27.1c0,7,0,11.5,0,13.5s0,3.6,0,4.8c0,1.2,0,2.2,0,3l0,0c0,1.6,0,3-0.1,4.1c-0.1,1.2-0.3,2.8-0.7,4.7
								c-0.4,1.9-0.9,3.6-1.6,5s-1.7,3-3.1,4.6s-3,3-4.9,4s-4.4,1.9-7.3,2.6c-3,0.7-6.3,1-10.1,1l0,0c-4,0-7.6-0.4-10.8-1.3
								c-3.2-0.8-5.7-1.9-7.5-3c-1.8-1.2-3.4-2.6-4.7-4.2c-1.3-1.6-2.2-3.1-2.7-4.2c-0.5-1.2-0.9-2.4-1.2-3.7l0,0
								C405.1-442.2,404.8-445.4,404.8-449.6L404.8-449.6z M487.9-424.5v-73.3h8.8v73.3H487.9z M513.4-490v-7.7h57.7v7.7h-24.5v65.5
								h-8.8V-490H513.4z M578.1-424.5l26-73.3h9.9l26,73.3h-8.9l-7.4-21.3h-30.2l-7.4,21.3H578.1z M621.1-453.4l-12.4-35.7
								l-12.5,35.7H621.1z M706-477.6L706-477.6c0,2.4-0.3,4.8-0.9,6.9c-0.6,2.2-1.5,4.3-2.7,6.3s-2.9,3.7-5.1,5.2
								c-2.2,1.5-4.7,2.5-7.6,3.2l0,0l20.7,31.5h-9.8l-20-30.5h-14.2v30.5h-8.8v-73.3h26.9c1.2,0,2.3,0,3.3,0.1s2.3,0.2,3.8,0.5
								c1.6,0.3,2.9,0.7,4.2,1.2c1.2,0.5,2.5,1.3,3.8,2.3s2.4,2.2,3.3,3.6c0.9,1.4,1.6,3.1,2.2,5.3C705.7-482.7,706-480.3,706-477.6
								z M666.4-490v27.3H679c1.7,0,3.3-0.1,4.6-0.2s2.9-0.5,4.7-1s3.3-1.3,4.5-2.2c1.2-1,2.2-2.3,3-4.1c0.8-1.8,1.3-3.9,1.3-6.4
								l0,0c0-1.7-0.2-3.3-0.7-4.7c-0.4-1.4-1-2.6-1.7-3.5s-1.5-1.7-2.5-2.4c-1-0.7-2-1.2-2.9-1.5c-0.9-0.4-2-0.6-3.1-0.8
								c-1.1-0.2-2.1-0.3-2.8-0.4c-0.7,0-1.5-0.1-2.3-0.1l0,0L666.4-490L666.4-490z M759.1-498.4L759.1-498.4c5.6,0,11.7,1,18.2,2.9
								l0,0l-2.8,8c-6.2-1.8-11.6-2.7-16.1-2.7l0,0c-5.1,0-9.4,1.1-12.9,3.2c-3.5,2.2-5.3,4.9-5.3,8.3l0,0c0,1.9,0.6,3.6,1.7,5
								c1.1,1.5,2.6,2.7,4.5,3.6s4,1.8,6.3,2.7c2.4,0.9,4.8,1.8,7.2,2.5c2.5,0.7,4.9,1.7,7.2,2.9c2.4,1.2,4.5,2.4,6.4,3.8
								c1.8,1.4,3.3,3.2,4.5,5.4c1.1,2.2,1.7,4.8,1.7,7.6l0,0c0,2-0.3,3.9-0.9,5.8c-0.6,1.9-1.7,3.9-3.1,5.8c-1.4,1.9-3.2,3.6-5.4,5
								c-2.1,1.5-4.8,2.6-8.1,3.5s-6.9,1.4-10.9,1.4s-7.7-0.4-11-1.2c-3.4-0.8-7.1-2.1-11.3-3.7l0,0l3-8.5
								c8.6,3.2,15.4,4.8,20.4,4.8l0,0c5.2,0,9.5-1,12.8-3.1s4.9-4.9,4.9-8.4l0,0c0-2.3-0.7-4.4-2.2-6.1s-3.4-3.1-5.7-4.1
								c-2.3-1.1-4.9-2-7.7-3c-2.8-0.9-5.6-1.9-8.4-2.9c-2.8-1-5.3-2.3-7.7-3.6c-2.3-1.4-4.2-3.2-5.7-5.6s-2.2-5.1-2.2-8.3l0,0
								c0-2.8,0.7-5.5,2-8.1c1.4-2.6,3.2-4.8,5.6-6.8c2.4-1.9,5.4-3.5,9-4.6C751-497.8,754.9-498.4,759.1-498.4z"/>
						</g>
					</g>
				</g>
			</g>
			<g transform="matrix(1,0,0,1,175.0084080030022,0)">
				<g>
					<path class="st2" d="M130.4-595.6c-1.1-0.1-2.2-0.1-3.4-0.1c-6.7,0-28.8,1.2-36.1,16.1c-2.3,0.4-4.7,0.8-7.2,1.4
						c-15.5,3.8-33.5,14-33.5,30.5c0,1.9,0.4,3.8,0.8,5.4c3.2,13,25.5,33.1,43.7,47.7c1.8,1.4,5.1,2.6,7.4,2.6
						c4.5,0,8.6-2.5,10.3-6.3l1-2.3c1.4-3.1,2.9-6.6,4.5-10.3c1.9,1.9,4.6,3.6,7.3,3.6c3,0,6.8-0.9,12.4-7.2
						c14.5-16.4,31.8-38.9,31.8-52.4C169.2-586.5,148.3-594.6,130.4-595.6z M109.8-502.1l-1,2.3c-1.2,2.8-4.3,4.1-6.8,4.1
						c-1.2,0-3.7-0.8-4.9-1.8C72-517.6,57-533.8,54.7-543.1c-0.3-1.4-0.7-3-0.7-4.5c0-14.2,16.5-23.3,30.6-26.7
						c5.6-1.4,10.8-2.1,15.5-2.1c8.4,0,23,2,26.3,15.4c0.4,1.5,0.6,3.7,0.6,5.7C127-541.1,116.2-516.7,109.8-502.1z M134.5-517
						c-4.6,5.2-7.3,5.9-9.5,5.9c-1.6,0-4.1-1.6-5.3-3.3l-0.3-0.4c5.6-13.6,11.4-29.6,11.4-40.4c0-2.3-0.3-4.9-0.7-6.6
						c-2.9-11.8-13.6-18.4-30-18.4c-1.4,0-2.9,0.1-4.5,0.2c7.5-10.8,25.6-11.7,31.4-11.7c1.1,0,2.1,0,3.2,0.1
						c5.9,0.3,35.2,3.1,35.2,24.9C165.4-557.3,154.4-539.6,134.5-517z"/>
				</g>
			</g>
		</g>
		<rect x="-213.9" y="-595.7" class="st3" width="997.2" height="236.7"/>
	</g>
</g>
</svg>
